<svg width="252" height="406" viewBox="0 0 252 406" fill="none" xmlns="http://www.w3.org/2000/svg">
<circle cx="5" cy="5" r="4.5" fill="#150B34" stroke="black"/>
<circle cx="27" cy="5" r="4.5" fill="#150B34" stroke="black"/>
<circle cx="49" cy="5" r="4.5" fill="#150B34" stroke="black"/>
<circle cx="5" cy="27" r="4.5" fill="#150B34" stroke="black"/>
<circle cx="27" cy="27" r="4.5" fill="#150B34" stroke="black"/>
<circle cx="49" cy="27" r="4.5" fill="#150B34" stroke="black"/>
<circle cx="5" cy="49" r="4.5" fill="#150B34" stroke="black"/>
<circle cx="27" cy="49" r="4.5" fill="#150B34" stroke="black"/>
<circle cx="49" cy="49" r="4.5" fill="#150B34" stroke="black"/>
<circle cx="71" cy="5" r="4.5" fill="#150B34" stroke="black"/>
<circle cx="93" cy="5" r="4.5" fill="#150B34" stroke="black"/>
<circle cx="115" cy="5" r="4.5" fill="#150B34" stroke="black"/>
<circle cx="71" cy="27" r="4.5" fill="#150B34" stroke="black"/>
<circle cx="93" cy="27" r="4.5" fill="#150B34" stroke="black"/>
<circle cx="115" cy="27" r="4.5" fill="#150B34" stroke="black"/>
<circle cx="71" cy="49" r="4.5" fill="#150B34" stroke="black"/>
<circle cx="93" cy="49" r="4.5" fill="#150B34" stroke="black"/>
<circle cx="115" cy="49" r="4.5" fill="#150B34" stroke="black"/>
<circle cx="137" cy="5" r="4.5" fill="#150B34" stroke="black"/>
<circle cx="159" cy="5" r="4.5" fill="#150B34" stroke="black"/>
<circle cx="181" cy="5" r="4.5" fill="#150B34" stroke="black"/>
<circle cx="137" cy="27" r="4.5" fill="#150B34" stroke="black"/>
<circle cx="159" cy="27" r="4.5" fill="#150B34" stroke="black"/>
<circle cx="181" cy="27" r="4.5" fill="#150B34" stroke="black"/>
<circle cx="137" cy="49" r="4.5" fill="#150B34" stroke="black"/>
<circle cx="159" cy="49" r="4.5" fill="#150B34" stroke="black"/>
<circle cx="181" cy="49" r="4.5" fill="#150B34" stroke="black"/>
<circle cx="203" cy="5" r="4.5" fill="#150B34" stroke="black"/>
<circle cx="225" cy="5" r="4.5" fill="#150B34" stroke="black"/>
<circle cx="247" cy="5" r="4.5" fill="#150B34" stroke="black"/>
<circle cx="203" cy="27" r="4.5" fill="#150B34" stroke="black"/>
<circle cx="225" cy="27" r="4.5" fill="#150B34" stroke="black"/>
<circle cx="247" cy="27" r="4.5" fill="#150B34" stroke="black"/>
<circle cx="203" cy="49" r="4.5" fill="#150B34" stroke="black"/>
<circle cx="225" cy="49" r="4.5" fill="#150B34" stroke="black"/>
<circle cx="247" cy="49" r="4.5" fill="#150B34" stroke="black"/>
<circle cx="5" cy="71" r="4.5" fill="#150B34" stroke="black"/>
<circle cx="27" cy="71" r="4.5" fill="#150B34" stroke="black"/>
<circle cx="49" cy="71" r="4.5" fill="#150B34" stroke="black"/>
<circle cx="5" cy="93" r="4.5" fill="#150B34" stroke="black"/>
<circle cx="27" cy="93" r="4.5" fill="#150B34" stroke="black"/>
<circle cx="49" cy="93" r="4.5" fill="#150B34" stroke="black"/>
<circle cx="5" cy="115" r="4.5" fill="#150B34" stroke="black"/>
<circle cx="27" cy="115" r="4.5" fill="#150B34" stroke="black"/>
<circle cx="49" cy="115" r="4.5" fill="#150B34" stroke="black"/>
<circle cx="71" cy="71" r="4.5" fill="#150B34" stroke="black"/>
<circle cx="93" cy="71" r="4.5" fill="#150B34" stroke="black"/>
<circle cx="115" cy="71" r="4.5" fill="#150B34" stroke="black"/>
<circle cx="71" cy="93" r="4.5" fill="#150B34" stroke="black"/>
<circle cx="93" cy="93" r="4.5" fill="#150B34" stroke="black"/>
<circle cx="115" cy="93" r="4.5" fill="#150B34" stroke="black"/>
<circle cx="71" cy="115" r="4.5" fill="#150B34" stroke="black"/>
<circle cx="93" cy="115" r="4.5" fill="#150B34" stroke="black"/>
<circle cx="115" cy="115" r="4.5" fill="#150B34" stroke="black"/>
<circle cx="137" cy="71" r="4.5" fill="#150B34" stroke="black"/>
<circle cx="159" cy="71" r="4.5" fill="#150B34" stroke="black"/>
<circle cx="181" cy="71" r="4.5" fill="#150B34" stroke="black"/>
<circle cx="137" cy="93" r="4.5" fill="#150B34" stroke="black"/>
<circle cx="159" cy="93" r="4.5" fill="#150B34" stroke="black"/>
<circle cx="181" cy="93" r="4.5" fill="#150B34" stroke="black"/>
<circle cx="137" cy="115" r="4.5" fill="#150B34" stroke="black"/>
<circle cx="159" cy="115" r="4.5" fill="#150B34" stroke="black"/>
<circle cx="181" cy="115" r="4.5" fill="#150B34" stroke="black"/>
<circle cx="203" cy="71" r="4.5" fill="#150B34" stroke="black"/>
<circle cx="225" cy="71" r="4.5" fill="#150B34" stroke="black"/>
<circle cx="247" cy="71" r="4.5" fill="#150B34" stroke="black"/>
<circle cx="203" cy="93" r="4.5" fill="#150B34" stroke="black"/>
<circle cx="225" cy="93" r="4.5" fill="#150B34" stroke="black"/>
<circle cx="247" cy="93" r="4.5" fill="#150B34" stroke="black"/>
<circle cx="203" cy="115" r="4.5" fill="#150B34" stroke="black"/>
<circle cx="225" cy="115" r="4.5" fill="#150B34" stroke="black"/>
<circle cx="247" cy="115" r="4.5" fill="#150B34" stroke="black"/>
<circle cx="5" cy="203" r="4.5" fill="#150B34" stroke="black"/>
<circle cx="27" cy="203" r="4.5" fill="#150B34" stroke="black"/>
<circle cx="49" cy="203" r="4.5" fill="#150B34" stroke="black"/>
<circle cx="5" cy="225" r="4.5" fill="#150B34" stroke="black"/>
<circle cx="27" cy="225" r="4.5" fill="#150B34" stroke="black"/>
<circle cx="49" cy="225" r="4.5" fill="#150B34" stroke="black"/>
<circle cx="5" cy="247" r="4.5" fill="#150B34" stroke="black"/>
<circle cx="27" cy="247" r="4.5" fill="#150B34" stroke="black"/>
<circle cx="49" cy="247" r="4.5" fill="#150B34" stroke="black"/>
<circle cx="71" cy="203" r="4.5" fill="#150B34" stroke="black"/>
<circle cx="93" cy="203" r="4.5" fill="#150B34" stroke="black"/>
<circle cx="115" cy="203" r="4.5" fill="#150B34" stroke="black"/>
<circle cx="71" cy="225" r="4.5" fill="#150B34" stroke="black"/>
<circle cx="93" cy="225" r="4.5" fill="#150B34" stroke="black"/>
<circle cx="115" cy="225" r="4.5" fill="#150B34" stroke="black"/>
<circle cx="71" cy="247" r="4.5" fill="#150B34" stroke="black"/>
<circle cx="93" cy="247" r="4.5" fill="#150B34" stroke="black"/>
<circle cx="115" cy="247" r="4.5" fill="#150B34" stroke="black"/>
<circle cx="137" cy="203" r="4.5" fill="#150B34" stroke="black"/>
<circle cx="159" cy="203" r="4.5" fill="#150B34" stroke="black"/>
<circle cx="181" cy="203" r="4.5" fill="#150B34" stroke="black"/>
<circle cx="137" cy="225" r="4.5" fill="#150B34" stroke="black"/>
<circle cx="159" cy="225" r="4.5" fill="#150B34" stroke="black"/>
<circle cx="181" cy="225" r="4.5" fill="#150B34" stroke="black"/>
<circle cx="137" cy="247" r="4.5" fill="#150B34" stroke="black"/>
<circle cx="159" cy="247" r="4.5" fill="#150B34" stroke="black"/>
<circle cx="181" cy="247" r="4.5" fill="#150B34" stroke="black"/>
<circle cx="203" cy="203" r="4.5" fill="#150B34" stroke="black"/>
<circle cx="225" cy="203" r="4.5" fill="#150B34" stroke="black"/>
<circle cx="247" cy="203" r="4.5" fill="#150B34" stroke="black"/>
<circle cx="203" cy="225" r="4.5" fill="#150B34" stroke="black"/>
<circle cx="225" cy="225" r="4.5" fill="#150B34" stroke="black"/>
<circle cx="247" cy="225" r="4.5" fill="#150B34" stroke="black"/>
<circle cx="203" cy="247" r="4.5" fill="#150B34" stroke="black"/>
<circle cx="225" cy="247" r="4.5" fill="#150B34" stroke="black"/>
<circle cx="247" cy="247" r="4.5" fill="#150B34" stroke="black"/>
<circle cx="5" cy="269" r="4.5" fill="#150B34" stroke="black"/>
<circle cx="27" cy="269" r="4.5" fill="#150B34" stroke="black"/>
<circle cx="49" cy="269" r="4.5" fill="#150B34" stroke="black"/>
<circle cx="5" cy="291" r="4.5" fill="#150B34" stroke="black"/>
<circle cx="27" cy="291" r="4.5" fill="#150B34" stroke="black"/>
<circle cx="49" cy="291" r="4.5" fill="#150B34" stroke="black"/>
<circle cx="5" cy="313" r="4.5" fill="#150B34" stroke="black"/>
<circle cx="27" cy="313" r="4.5" fill="#150B34" stroke="black"/>
<circle cx="49" cy="313" r="4.5" fill="#150B34" stroke="black"/>
<circle cx="71" cy="269" r="4.5" fill="#150B34" stroke="black"/>
<circle cx="93" cy="269" r="4.5" fill="#150B34" stroke="black"/>
<circle cx="115" cy="269" r="4.5" fill="#150B34" stroke="black"/>
<circle cx="71" cy="291" r="4.5" fill="#150B34" stroke="black"/>
<circle cx="93" cy="291" r="4.5" fill="#150B34" stroke="black"/>
<circle cx="115" cy="291" r="4.5" fill="#150B34" stroke="black"/>
<circle cx="71" cy="313" r="4.5" fill="#150B34" stroke="black"/>
<circle cx="93" cy="313" r="4.5" fill="#150B34" stroke="black"/>
<circle cx="115" cy="313" r="4.5" fill="#150B34" stroke="black"/>
<circle cx="137" cy="269" r="4.5" fill="#150B34" stroke="black"/>
<circle cx="159" cy="269" r="4.5" fill="#150B34" stroke="black"/>
<circle cx="181" cy="269" r="4.5" fill="#150B34" stroke="black"/>
<circle cx="137" cy="291" r="4.5" fill="#150B34" stroke="black"/>
<circle cx="159" cy="291" r="4.5" fill="#150B34" stroke="black"/>
<circle cx="181" cy="291" r="4.5" fill="#150B34" stroke="black"/>
<circle cx="137" cy="313" r="4.5" fill="#150B34" stroke="black"/>
<circle cx="159" cy="313" r="4.5" fill="#150B34" stroke="black"/>
<circle cx="181" cy="313" r="4.5" fill="#150B34" stroke="black"/>
<circle cx="203" cy="269" r="4.5" fill="#150B34" stroke="black"/>
<circle cx="225" cy="269" r="4.5" fill="#150B34" stroke="black"/>
<circle cx="247" cy="269" r="4.5" fill="#150B34" stroke="black"/>
<circle cx="203" cy="291" r="4.5" fill="#150B34" stroke="black"/>
<circle cx="225" cy="291" r="4.5" fill="#150B34" stroke="black"/>
<circle cx="247" cy="291" r="4.5" fill="#150B34" stroke="black"/>
<circle cx="203" cy="313" r="4.5" fill="#150B34" stroke="black"/>
<circle cx="225" cy="313" r="4.5" fill="#150B34" stroke="black"/>
<circle cx="247" cy="313" r="4.5" fill="#150B34" stroke="black"/>
<circle cx="5" cy="137" r="4.5" fill="#150B34" stroke="black"/>
<circle cx="27" cy="137" r="4.5" fill="#150B34" stroke="black"/>
<circle cx="49" cy="137" r="4.5" fill="#150B34" stroke="black"/>
<circle cx="5" cy="159" r="4.5" fill="#150B34" stroke="black"/>
<circle cx="27" cy="159" r="4.5" fill="#150B34" stroke="black"/>
<circle cx="49" cy="159" r="4.5" fill="#150B34" stroke="black"/>
<circle cx="5" cy="181" r="4.5" fill="#150B34" stroke="black"/>
<circle cx="27" cy="181" r="4.5" fill="#150B34" stroke="black"/>
<circle cx="49" cy="181" r="4.5" fill="#150B34" stroke="black"/>
<circle cx="71" cy="137" r="4.5" fill="#150B34" stroke="black"/>
<circle cx="93" cy="137" r="4.5" fill="#150B34" stroke="black"/>
<circle cx="115" cy="137" r="4.5" fill="#150B34" stroke="black"/>
<circle cx="71" cy="159" r="4.5" fill="#150B34" stroke="black"/>
<circle cx="93" cy="159" r="4.5" fill="#150B34" stroke="black"/>
<circle cx="115" cy="159" r="4.5" fill="#150B34" stroke="black"/>
<circle cx="71" cy="181" r="4.5" fill="#150B34" stroke="black"/>
<circle cx="93" cy="181" r="4.5" fill="#150B34" stroke="black"/>
<circle cx="115" cy="181" r="4.5" fill="#150B34" stroke="black"/>
<circle cx="137" cy="137" r="4.5" fill="#150B34" stroke="black"/>
<circle cx="159" cy="137" r="4.5" fill="#150B34" stroke="black"/>
<circle cx="181" cy="137" r="4.5" fill="#150B34" stroke="black"/>
<circle cx="137" cy="159" r="4.5" fill="#150B34" stroke="black"/>
<circle cx="159" cy="159" r="4.5" fill="#150B34" stroke="black"/>
<circle cx="181" cy="159" r="4.5" fill="#150B34" stroke="black"/>
<circle cx="137" cy="181" r="4.5" fill="#150B34" stroke="black"/>
<circle cx="159" cy="181" r="4.5" fill="#150B34" stroke="black"/>
<circle cx="181" cy="181" r="4.5" fill="#150B34" stroke="black"/>
<circle cx="203" cy="137" r="4.5" fill="#150B34" stroke="black"/>
<circle cx="225" cy="137" r="4.5" fill="#150B34" stroke="black"/>
<circle cx="247" cy="137" r="4.5" fill="#150B34" stroke="black"/>
<circle cx="203" cy="159" r="4.5" fill="#150B34" stroke="black"/>
<circle cx="225" cy="159" r="4.5" fill="#150B34" stroke="black"/>
<circle cx="247" cy="159" r="4.5" fill="#150B34" stroke="black"/>
<circle cx="203" cy="181" r="4.5" fill="#150B34" stroke="black"/>
<circle cx="225" cy="181" r="4.5" fill="#150B34" stroke="black"/>
<circle cx="247" cy="181" r="4.5" fill="#150B34" stroke="black"/>
<circle cx="5" cy="335" r="4.5" fill="#150B34" stroke="black"/>
<circle cx="27" cy="335" r="4.5" fill="#150B34" stroke="black"/>
<circle cx="49" cy="335" r="4.5" fill="#150B34" stroke="black"/>
<circle cx="5" cy="357" r="4.5" fill="#150B34" stroke="black"/>
<circle cx="27" cy="357" r="4.5" fill="#150B34" stroke="black"/>
<circle cx="49" cy="357" r="4.5" fill="#150B34" stroke="black"/>
<circle cx="5" cy="379" r="4.5" fill="#150B34" stroke="black"/>
<circle cx="27" cy="379" r="4.5" fill="#150B34" stroke="black"/>
<circle cx="49" cy="379" r="4.5" fill="#150B34" stroke="black"/>
<circle cx="71" cy="335" r="4.5" fill="#150B34" stroke="black"/>
<circle cx="93" cy="335" r="4.5" fill="#150B34" stroke="black"/>
<circle cx="115" cy="335" r="4.5" fill="#150B34" stroke="black"/>
<circle cx="71" cy="357" r="4.5" fill="#150B34" stroke="black"/>
<circle cx="93" cy="357" r="4.5" fill="#150B34" stroke="black"/>
<circle cx="115" cy="357" r="4.5" fill="#150B34" stroke="black"/>
<circle cx="71" cy="379" r="4.5" fill="#150B34" stroke="black"/>
<circle cx="93" cy="379" r="4.5" fill="#150B34" stroke="black"/>
<circle cx="115" cy="379" r="4.5" fill="#150B34" stroke="black"/>
<circle cx="137" cy="335" r="4.5" fill="#150B34" stroke="black"/>
<circle cx="159" cy="335" r="4.5" fill="#150B34" stroke="black"/>
<circle cx="181" cy="335" r="4.5" fill="#150B34" stroke="black"/>
<circle cx="137" cy="357" r="4.5" fill="#150B34" stroke="black"/>
<circle cx="159" cy="357" r="4.5" fill="#150B34" stroke="black"/>
<circle cx="181" cy="357" r="4.5" fill="#150B34" stroke="black"/>
<circle cx="137" cy="379" r="4.5" fill="#150B34" stroke="black"/>
<circle cx="159" cy="379" r="4.5" fill="#150B34" stroke="black"/>
<circle cx="181" cy="379" r="4.5" fill="#150B34" stroke="black"/>
<circle cx="203" cy="335" r="4.5" fill="#150B34" stroke="black"/>
<circle cx="225" cy="335" r="4.5" fill="#150B34" stroke="black"/>
<circle cx="247" cy="335" r="4.5" fill="#150B34" stroke="black"/>
<circle cx="203" cy="357" r="4.5" fill="#150B34" stroke="black"/>
<circle cx="225" cy="357" r="4.5" fill="#150B34" stroke="black"/>
<circle cx="247" cy="357" r="4.5" fill="#150B34" stroke="black"/>
<circle cx="203" cy="379" r="4.5" fill="#150B34" stroke="black"/>
<circle cx="225" cy="379" r="4.5" fill="#150B34" stroke="black"/>
<circle cx="247" cy="379" r="4.5" fill="#150B34" stroke="black"/>
<circle cx="5" cy="401" r="4.5" fill="#150B34" stroke="black"/>
<circle cx="27" cy="401" r="4.5" fill="#150B34" stroke="black"/>
<circle cx="49" cy="401" r="4.5" fill="#150B34" stroke="black"/>
<circle cx="71" cy="401" r="4.5" fill="#150B34" stroke="black"/>
<circle cx="93" cy="401" r="4.5" fill="#150B34" stroke="black"/>
<circle cx="115" cy="401" r="4.5" fill="#150B34" stroke="black"/>
<circle cx="137" cy="401" r="4.5" fill="#150B34" stroke="black"/>
<circle cx="159" cy="401" r="4.5" fill="#150B34" stroke="black"/>
<circle cx="181" cy="401" r="4.5" fill="#150B34" stroke="black"/>
<circle cx="203" cy="401" r="4.5" fill="#150B34" stroke="black"/>
<circle cx="225" cy="401" r="4.5" fill="#150B34" stroke="black"/>
<circle cx="247" cy="401" r="4.5" fill="#150B34" stroke="black"/>
</svg>
