{
  "accessors": [
    {
      "bufferView": 2,
      "componentType": 5126,
      "count": 12016,
      "max": [
        32.649993896484375,
        12.319001197814941,
        32.650001525878906
      ],
      "min": [
        -32.64997100830078,
        -12.319001197814941,
        -32.64997863769531
      ],
      "type": "VEC3"
    },
    {
      "bufferView": 2,
      "byteOffset": 144192,
      "componentType": 5126,
      "count": 12016,
      "max": [
        1.0,
        1.0,
        1.0
      ],
      "min": [
        -1.0,
        -1.0,
        -1.0
      ],
      "type": "VEC3"
    },
    {
      "bufferView": 3,
      "componentType": 5126,
      "count": 12016,
      "max": [
        1.0,
        1.0,
        1.0,
        1.0
      ],
      "min": [
        -1.0,
        -0.9999788999557495,
        -1.0,
        -1.0
      ],
      "type": "VEC4"
    },
    {
      "bufferView": 1,
      "componentType": 5126,
      "count": 12016,
      "max": [
        0.9920238256454468,
        0.9961974620819092
      ],
      "min": [
        0.008919551968574524,
        0.007817648351192474
      ],
      "type": "VEC2"
    },
    {
      "bufferView": 1,
      "byteOffset": 96128,
      "componentType": 5126,
      "count": 12016,
      "max": [
        0.9920238256454468,
        0.9961974620819092
      ],
      "min": [
        0.008919551968574524,
        0.007817648351192474
      ],
      "type": "VEC2"
    },
    {
      "bufferView": 1,
      "byteOffset": 192256,
      "componentType": 5126,
      "count": 12016,
      "max": [
        0.9920238256454468,
        0.9961974620819092
      ],
      "min": [
        0.008919551968574524,
        0.007817648351192474
      ],
      "type": "VEC2"
    },
    {
      "bufferView": 0,
      "componentType": 5125,
      "count": 62232,
      "type": "SCALAR"
    }
  ],
  "asset": {
    "extras": {
      "author": "Mozzarellarch (https://sketchfab.com/mozzarellarch)",
      "license": "CC-BY-4.0 (http://creativecommons.org/licenses/by/4.0/)",
      "source": "https://sketchfab.com/3d-models/bbs-ch-r-goodyear-eagle-f1-supercar-3-2acc32fc79684a2c8b7df9faaa5a5c35",
      "title": "BBS CH-R + Goodyear Eagle F1 Supercar 3"
    },
    "generator": "Sketchfab-13.74.0",
    "version": "2.0"
  },
  "bufferViews": [
    {
      "buffer": 0,
      "byteLength": 248928,
      "name": "floatBufferViews",
      "target": 34963
    },
    {
      "buffer": 0,
      "byteLength": 288384,
      "byteOffset": 248928,
      "byteStride": 8,
      "name": "floatBufferViews",
      "target": 34962
    },
    {
      "buffer": 0,
      "byteLength": 288384,
      "byteOffset": 537312,
      "byteStride": 12,
      "name": "floatBufferViews",
      "target": 34962
    },
    {
      "buffer": 0,
      "byteLength": 192256,
      "byteOffset": 825696,
      "byteStride": 16,
      "name": "floatBufferViews",
      "target": 34962
    }
  ],
  "buffers": [
    {
      "byteLength": 1017952,
      "uri": "scene.bin"
    }
  ],
  "images": [
    {
      "uri": "textures/MI_BBS_CH-R_baseColor.png"
    },
    {
      "uri": "textures/MI_BBS_CH-R_metallicRoughness.png"
    },
    {
      "uri": "textures/MI_BBS_CH-R_normal.png"
    }
  ],
  "materials": [
    {
      "doubleSided": true,
      "name": "MI_BBS_CH-R",
      "normalTexture": {
        "index": 2
      },
      "pbrMetallicRoughness": {
        "baseColorTexture": {
          "index": 0
        },
        "metallicRoughnessTexture": {
          "index": 1
        }
      }
    }
  ],
  "meshes": [
    {
      "name": "SM_BBS_CH-R_MI_BBS_CH-R_0",
      "primitives": [
        {
          "attributes": {
            "NORMAL": 1,
            "POSITION": 0,
            "TANGENT": 2,
            "TEXCOORD_0": 3,
            "TEXCOORD_1": 4,
            "TEXCOORD_2": 5
          },
          "indices": 6,
          "material": 0,
          "mode": 4
        }
      ]
    }
  ],
  "nodes": [
    {
      "children": [
        1
      ],
      "matrix": [
        1.0,
        0.0,
        0.0,
        0.0,
        0.0,
        -2.220446049250313e-16,
        1.0,
        0.0,
        0.0,
        -1.0,
        -2.220446049250313e-16,
        0.0,
        0.0,
        0.0,
        0.0,
        1.0
      ],
      "name": "Sketchfab_model"
    },
    {
      "children": [
        2
      ],
      "matrix": [
        0.009999999776482582,
        0.0,
        0.0,
        0.0,
        0.0,
        -0.009999999776482582,
        0.0,
        0.0,
        0.0,
        0.0,
        -0.009999999776482582,
        0.0,
        0.0,
        0.0,
        0.0,
        1.0
      ],
      "name": "9b742d1247e4427eafea9f9a0ed3aadb.fbx"
    },
    {
      "children": [
        3
      ],
      "name": "RootNode"
    },
    {
      "children": [
        4
      ],
      "name": "SM_BBS_CH-R"
    },
    {
      "mesh": 0,
      "name": "SM_BBS_CH-R_MI_BBS_CH-R_0"
    }
  ],
  "samplers": [
    {
      "magFilter": 9729,
      "minFilter": 9987,
      "wrapS": 10497,
      "wrapT": 10497
    }
  ],
  "scene": 0,
  "scenes": [
    {
      "name": "Sketchfab_Scene",
      "nodes": [
        0
      ]
    }
  ],
  "textures": [
    {
      "sampler": 0,
      "source": 0
    },
    {
      "sampler": 0,
      "source": 1
    },
    {
      "sampler": 0,
      "source": 2
    }
  ]
}
